<?xml version="1.0" encoding="utf-8"?>
<!-- Generator: Adobe Illustrator 28.1.0, SVG Export Plug-In . SVG Version: 6.00 Build 0)  -->
<svg version="1.0" id="Livello_1" xmlns="http://www.w3.org/2000/svg" xmlns:xlink="http://www.w3.org/1999/xlink" x="0px" y="0px"
	 viewBox="0 0 600 200" style="enable-background:new 0 0 600 200;" xml:space="preserve">
<style type="text/css">
	.st0{fill:#6989C5;}
	.st1{fill:#0B4697;}
	.st2{fill:none;}
</style>
<path class="st0" d="M403.9,86.6c2.4-1.4,3.9-2.6,4.6-3.7c0.7-1.1,1-2.2,1-3.5c0-1.5-0.5-2.8-1.4-3.7c-1-1-2.2-1.4-3.6-1.4
	c-1.5,0-2.7,0.5-3.7,1.4c-1,1-1.5,2.1-1.5,3.5c0,0.7,0.2,1.4,0.5,2.2c0.4,0.8,0.9,1.6,1.6,2.4L403.9,86.6z M411.5,105.6l-10-12.5
	c-2.9,1.8-4.9,3.4-6,4.9c-1,1.5-1.5,3-1.5,4.5c0,1.8,0.7,3.7,2.1,5.7c1.4,1.9,3.4,2.9,6.1,2.9c1.6,0,3.3-0.5,5.1-1.5
	C409.1,108.5,410.5,107.2,411.5,105.6 M414.9,109.9c-1.8,2-3.7,3.5-5.9,4.5c-2.1,1-4.4,1.5-6.9,1.5c-4.5,0-8.1-1.5-10.8-4.6
	c-2.2-2.5-3.2-5.3-3.2-8.4c0-2.8,0.9-5.3,2.6-7.5c1.7-2.2,4.4-4.2,7.9-5.9c-2-2.3-3.3-4.2-4-5.6c-0.7-1.4-1-2.8-1-4.2
	c0-2.7,1-5,3.1-7c2.1-2,4.7-3,7.9-3c3,0,5.5,0.9,7.4,2.8c1.9,1.9,2.9,4.1,2.9,6.7c0,4.2-2.8,7.9-8.4,10.9l7.9,10.2
	c0.9-1.8,1.6-3.9,2.1-6.2l5.6,1.2c-1,3.9-2.3,7.1-3.9,9.6c2,2.7,4.3,5,6.9,6.9l-3.6,4.4C419.5,114.8,417.3,112.7,414.9,109.9"/>
<path class="st0" d="M103.1,162.1l-0.4-3c0.7,0.2,1.3,0.3,1.9,0.3c0.7,0,1.3-0.1,1.7-0.4c0.4-0.2,0.8-0.6,1.1-1
	c0.2-0.3,0.5-1.1,1-2.4c0.1-0.2,0.2-0.4,0.3-0.8l-7.2-19.2h3.5l4,11.1c0.5,1.4,1,2.9,1.4,4.4c0.4-1.5,0.8-2.9,1.3-4.4l4.1-11.1h3.2
	l-7.3,19.5c-0.8,2.1-1.4,3.6-1.8,4.4c-0.6,1.1-1.2,1.9-2,2.4c-0.7,0.5-1.6,0.7-2.7,0.7C104.5,162.5,103.8,162.4,103.1,162.1"/>
<path class="st0" d="M130.7,145.2c0,2.4,0.5,4.3,1.6,5.5c1.1,1.2,2.4,1.8,4,1.8c1.6,0,2.9-0.6,4-1.8c1.1-1.2,1.6-3.1,1.6-5.6
	c0-2.4-0.5-4.2-1.6-5.4c-1.1-1.2-2.4-1.8-4-1.8c-1.6,0-3,0.6-4,1.8C131.2,140.9,130.7,142.7,130.7,145.2 M127.4,145.2
	c0-3.5,1-6.2,3-7.9c1.6-1.4,3.6-2.1,6-2.1c2.6,0,4.8,0.9,6.4,2.6c1.7,1.7,2.5,4.1,2.5,7.1c0,2.5-0.4,4.4-1.1,5.8
	c-0.7,1.4-1.8,2.5-3.2,3.3c-1.4,0.8-2.9,1.2-4.6,1.2c-2.7,0-4.8-0.9-6.5-2.6C128.2,150.9,127.4,148.4,127.4,145.2"/>
<path class="st0" d="M168.5,154.7v-2.8c-1.5,2.2-3.5,3.2-6.1,3.2c-1.1,0-2.2-0.2-3.1-0.6c-1-0.4-1.7-1-2.2-1.6
	c-0.5-0.7-0.8-1.5-1-2.4c-0.1-0.6-0.2-1.6-0.2-3v-11.8h3.2v10.6c0,1.7,0.1,2.8,0.2,3.4c0.2,0.9,0.6,1.5,1.3,2
	c0.7,0.5,1.5,0.7,2.4,0.7c1,0,1.9-0.3,2.7-0.7c0.9-0.5,1.5-1.2,1.8-2c0.4-0.9,0.5-2.1,0.5-3.7v-10.3h3.2v19.1L168.5,154.7
	L168.5,154.7z"/>
<path class="st0" d="M183.4,154.7v-19.1h2.9v2.9c0.7-1.4,1.4-2.3,2-2.7c0.6-0.4,1.3-0.7,2.1-0.7c1.1,0,2.2,0.3,3.3,1l-1.1,3
	c-0.8-0.5-1.6-0.7-2.4-0.7c-0.7,0-1.3,0.2-1.9,0.6c-0.6,0.4-1,1-1.2,1.8c-0.4,1.2-0.5,2.4-0.5,3.8v10H183.4z"/>
<path class="st0" d="M218.5,149l3.2-0.5c0.2,1.3,0.7,2.3,1.5,3c0.8,0.7,2,1,3.5,1c1.5,0,2.6-0.3,3.3-0.9c0.7-0.6,1.1-1.3,1.1-2.1
	c0-0.7-0.3-1.3-0.9-1.7c-0.4-0.3-1.5-0.7-3.3-1.1c-2.4-0.6-4-1.1-4.9-1.6c-0.9-0.4-1.6-1.1-2.1-1.8c-0.5-0.8-0.7-1.6-0.7-2.6
	c0-0.8,0.2-1.6,0.6-2.4c0.4-0.7,0.9-1.3,1.6-1.8c0.5-0.4,1.2-0.7,2.1-0.9c0.9-0.3,1.8-0.4,2.8-0.4c1.5,0,2.8,0.2,3.9,0.6
	c1.1,0.4,2,1,2.5,1.8c0.5,0.8,0.9,1.7,1.1,3l-3.2,0.4c-0.1-1-0.6-1.8-1.2-2.3c-0.7-0.6-1.7-0.8-2.9-0.8c-1.5,0-2.5,0.3-3.2,0.7
	c-0.6,0.5-0.9,1.1-0.9,1.7c0,0.4,0.1,0.8,0.4,1.1c0.3,0.4,0.7,0.6,1.2,0.9c0.3,0.1,1.3,0.4,2.9,0.8c2.3,0.6,3.9,1.1,4.8,1.5
	c0.9,0.4,1.6,1,2.1,1.7c0.5,0.7,0.8,1.7,0.8,2.8c0,1.1-0.3,2.1-0.9,3.1c-0.6,1-1.5,1.7-2.7,2.2c-1.2,0.5-2.5,0.8-4,0.8
	c-2.5,0-4.4-0.5-5.7-1.5C219.7,152.6,218.9,151,218.5,149"/>
<path class="st0" d="M247.3,145.2c0,2.4,0.5,4.3,1.6,5.5c1.1,1.2,2.4,1.8,4,1.8c1.6,0,2.9-0.6,4-1.8c1.1-1.2,1.6-3.1,1.6-5.6
	c0-2.4-0.5-4.2-1.6-5.4c-1.1-1.2-2.4-1.8-4-1.8c-1.6,0-3,0.6-4,1.8C247.8,140.9,247.3,142.7,247.3,145.2 M243.9,145.2
	c0-3.5,1-6.2,2.9-7.9c1.6-1.4,3.6-2.1,6-2.1c2.6,0,4.8,0.9,6.4,2.6c1.7,1.7,2.5,4.1,2.5,7.1c0,2.5-0.4,4.4-1.1,5.8
	c-0.7,1.4-1.8,2.5-3.2,3.3c-1.4,0.8-3,1.2-4.6,1.2c-2.7,0-4.8-0.9-6.5-2.6C244.8,150.9,243.9,148.4,243.9,145.2"/>
<rect x="272.5" y="128.3" class="st0" width="3.2" height="26.4"/>
<path class="st0" d="M293,154.7l-7.3-19.1h3.4l4.1,11.5c0.4,1.2,0.9,2.5,1.2,3.9c0.3-1,0.7-2.2,1.2-3.6l4.2-11.7h3.3l-7.2,19.1H293z
	"/>
<path class="st0" d="M313.1,135.6h3.2v19.1h-3.2V135.6z M313.1,128.3h3.2v3.7h-3.2V128.3z"/>
<path class="st0" d="M328.2,154.7v-19.1h2.9v2.7c1.4-2.1,3.4-3.2,6.1-3.2c1.2,0,2.2,0.2,3.2,0.6c1,0.4,1.7,1,2.2,1.6
	c0.5,0.7,0.8,1.5,1,2.4c0.1,0.6,0.2,1.6,0.2,3.1v11.8h-3.2v-11.6c0-1.3-0.1-2.3-0.4-3c-0.2-0.7-0.7-1.2-1.3-1.6
	c-0.6-0.4-1.4-0.6-2.3-0.6c-1.4,0-2.6,0.4-3.6,1.3c-1,0.9-1.5,2.5-1.5,5v10.4H328.2z"/>
<path class="st0" d="M357.7,144.8c0,2.5,0.5,4.3,1.5,5.5c1,1.2,2.2,1.7,3.7,1.7c1.5,0,2.7-0.6,3.7-1.7c1-1.1,1.5-3,1.5-5.4
	c0-2.3-0.5-4.1-1.6-5.3c-1-1.2-2.3-1.8-3.7-1.8c-1.4,0-2.7,0.6-3.7,1.8C358.2,140.8,357.7,142.5,357.7,144.8 M355,156.3l3.1,0.5
	c0.1,1,0.5,1.7,1.1,2.1c0.8,0.6,1.9,0.9,3.3,0.9c1.5,0,2.7-0.3,3.5-0.9c0.8-0.6,1.4-1.4,1.7-2.5c0.2-0.7,0.2-2,0.2-4.2
	c-1.4,1.7-3.2,2.5-5.3,2.5c-2.6,0-4.7-1-6.1-2.8c-1.4-1.9-2.2-4.2-2.2-6.8c0-1.8,0.3-3.5,1-5.1c0.7-1.6,1.6-2.7,2.9-3.6
	c1.3-0.8,2.7-1.3,4.4-1.3c2.3,0,4.1,0.9,5.6,2.7v-2.3h3v16.5c0,3-0.3,5.1-0.9,6.3c-0.6,1.2-1.6,2.2-2.9,2.9
	c-1.3,0.7-2.9,1.1-4.8,1.1c-2.3,0-4.1-0.5-5.5-1.5C355.6,159.9,355,158.4,355,156.3"/>
<path class="st0" d="M412.7,147.7l3.2,0.4c-0.4,2.2-1.2,3.9-2.7,5.2c-1.4,1.2-3.2,1.9-5.3,1.9c-2.6,0-4.7-0.9-6.3-2.6
	c-1.6-1.7-2.4-4.2-2.4-7.4c0-2.1,0.3-3.9,1-5.4c0.7-1.5,1.7-2.7,3.1-3.5c1.4-0.8,2.9-1.2,4.6-1.2c2.1,0,3.8,0.5,5.1,1.6
	c1.3,1,2.2,2.5,2.5,4.5l-3.1,0.5c-0.3-1.3-0.8-2.2-1.6-2.9c-0.8-0.6-1.7-1-2.8-1c-1.6,0-2.9,0.6-4,1.8c-1,1.2-1.5,3-1.5,5.6
	c0,2.6,0.5,4.4,1.5,5.6c1,1.2,2.3,1.8,3.8,1.8c1.3,0,2.3-0.4,3.2-1.2C411.9,150.5,412.4,149.3,412.7,147.7"/>
<path class="st0" d="M427.7,145.2c0,2.4,0.5,4.3,1.6,5.5c1.1,1.2,2.4,1.8,4,1.8c1.6,0,2.9-0.6,4-1.8c1.1-1.2,1.6-3.1,1.6-5.6
	c0-2.4-0.5-4.2-1.6-5.4c-1.1-1.2-2.4-1.8-4-1.8c-1.6,0-3,0.6-4,1.8C428.2,140.9,427.7,142.7,427.7,145.2 M424.4,145.2
	c0-3.5,1-6.2,2.9-7.9c1.6-1.4,3.6-2.1,6-2.1c2.6,0,4.8,0.9,6.4,2.6c1.7,1.7,2.5,4.1,2.5,7.1c0,2.5-0.4,4.4-1.1,5.8
	c-0.7,1.4-1.8,2.5-3.2,3.3c-1.4,0.8-3,1.2-4.6,1.2c-2.7,0-4.8-0.9-6.5-2.6C425.2,150.9,424.4,148.4,424.4,145.2"/>
<path class="st0" d="M453,154.7v-19.1h2.9v2.7c0.6-0.9,1.4-1.7,2.4-2.3c1-0.6,2.1-0.9,3.4-0.9c1.4,0,2.6,0.3,3.5,0.9
	c0.9,0.6,1.5,1.4,1.9,2.5c1.5-2.2,3.5-3.4,5.9-3.4c1.9,0,3.4,0.5,4.4,1.6c1,1,1.5,2.7,1.5,4.9v13.1h-3.2v-12.1
	c0-1.3-0.1-2.2-0.3-2.8c-0.2-0.6-0.6-1-1.1-1.4c-0.6-0.3-1.2-0.5-1.9-0.5c-1.3,0-2.5,0.4-3.4,1.3c-0.9,0.9-1.3,2.3-1.3,4.3v11.1
	h-3.2v-12.4c0-1.4-0.3-2.5-0.8-3.2c-0.5-0.7-1.4-1.1-2.6-1.1c-0.9,0-1.7,0.2-2.5,0.7c-0.8,0.5-1.3,1.2-1.7,2.1
	c-0.3,0.9-0.5,2.2-0.5,4v9.9H453z"/>
<path class="st0" d="M493.5,145.3c0,2.5,0.5,4.3,1.5,5.5c1,1.2,2.2,1.8,3.6,1.8c1.4,0,2.7-0.6,3.7-1.8c1-1.2,1.5-3.1,1.5-5.7
	c0-2.4-0.5-4.3-1.5-5.5c-1-1.2-2.2-1.8-3.6-1.8c-1.4,0-2.6,0.7-3.7,1.9C494,140.9,493.5,142.8,493.5,145.3 M490.6,162v-26.5h2.9v2.5
	c0.7-1,1.5-1.7,2.4-2.2c0.9-0.5,1.9-0.7,3.2-0.7c1.6,0,3.1,0.4,4.3,1.3c1.3,0.8,2.2,2,2.8,3.6c0.6,1.5,1,3.2,1,5
	c0,2-0.4,3.7-1.1,5.3c-0.7,1.6-1.7,2.8-3.1,3.6c-1.3,0.8-2.7,1.3-4.2,1.3c-1.1,0-2-0.2-2.9-0.7c-0.9-0.5-1.6-1-2.1-1.7v9.3
	L490.6,162L490.6,162z"/>
<path class="st0" d="M530.2,145.1c-1.2,0.5-2.9,0.9-5.3,1.2c-1.3,0.2-2.3,0.4-2.8,0.7c-0.6,0.2-1,0.6-1.3,1.1
	c-0.3,0.5-0.4,1-0.4,1.5c0,0.9,0.3,1.6,1,2.2c0.7,0.6,1.6,0.9,2.9,0.9c1.2,0,2.4-0.3,3.3-0.8c1-0.6,1.7-1.3,2.1-2.3
	c0.3-0.7,0.5-1.8,0.5-3.2V145.1z M530.5,152.4c-1.2,1-2.4,1.7-3.5,2.2s-2.3,0.6-3.6,0.6c-2.1,0-3.7-0.5-4.8-1.5
	c-1.1-1-1.7-2.3-1.7-3.9c0-0.9,0.2-1.8,0.6-2.6c0.4-0.8,1-1.4,1.7-1.9c0.7-0.5,1.5-0.8,2.3-1.1c0.6-0.2,1.6-0.3,2.9-0.5
	c2.6-0.3,4.5-0.7,5.8-1.1c0-0.4,0-0.7,0-0.8c0-1.3-0.3-2.3-0.9-2.8c-0.8-0.7-2-1.1-3.7-1.1c-1.5,0-2.6,0.3-3.4,0.8
	c-0.7,0.5-1.3,1.5-1.6,2.8l-3.2-0.4c0.3-1.4,0.8-2.5,1.4-3.3c0.7-0.8,1.6-1.5,2.9-1.9c1.2-0.4,2.7-0.7,4.3-0.7c1.6,0,3,0.2,4,0.6
	c1,0.4,1.8,0.9,2.2,1.4c0.5,0.6,0.8,1.3,1,2.2c0.1,0.5,0.2,1.5,0.2,3v4.3c0,3,0.1,4.9,0.2,5.7c0.1,0.8,0.4,1.6,0.8,2.3h-3.4
	C530.8,154,530.6,153.3,530.5,152.4"/>
<path class="st0" d="M545.4,154.7v-19.1h2.9v2.7c1.4-2.1,3.4-3.2,6.1-3.2c1.1,0,2.2,0.2,3.2,0.6c1,0.4,1.7,1,2.2,1.6
	c0.5,0.7,0.8,1.5,1,2.4c0.1,0.6,0.2,1.6,0.2,3.1v11.8h-3.2v-11.6c0-1.3-0.1-2.3-0.4-3c-0.3-0.7-0.7-1.2-1.3-1.6
	c-0.6-0.4-1.4-0.6-2.3-0.6c-1.4,0-2.6,0.4-3.6,1.3c-1,0.9-1.5,2.5-1.5,5v10.4H545.4z"/>
<path class="st0" d="M572.7,162.1l-0.4-3c0.7,0.2,1.3,0.3,1.8,0.3c0.7,0,1.3-0.1,1.7-0.4c0.4-0.2,0.8-0.6,1.1-1
	c0.2-0.3,0.5-1.1,1-2.4c0.1-0.2,0.2-0.4,0.3-0.8l-7.2-19.2h3.5l4,11.1c0.5,1.4,1,2.9,1.4,4.4c0.4-1.5,0.8-2.9,1.3-4.4l4.1-11.1h3.2
	l-7.3,19.5c-0.8,2.1-1.4,3.6-1.8,4.4c-0.6,1.1-1.2,1.9-2,2.4c-0.7,0.5-1.6,0.7-2.7,0.7C574.2,162.5,573.5,162.4,572.7,162.1"/>
<polygon class="st0" points="76,167.5 76,167.5 76,94.9 59.4,79.8 42.8,95 42.8,167.5 42.8,175.5 42.8,186.5 76,186.5 "/>
<polygon class="st0" points="38.5,167.5 38.5,98.9 5.3,129.4 5.3,167.5 5.3,175.5 5.3,186.5 38.5,186.5 "/>
<rect x="102.6" y="53.4" class="st1" width="8.1" height="61.8"/>
<path class="st1" d="M124,115.2V70.4h6.8v6.4c3.3-4.9,8-7.4,14.1-7.4c2.7,0,5.1,0.5,7.4,1.5c2.2,1,3.9,2.2,5,3.8
	c1.1,1.6,1.9,3.4,2.3,5.6c0.3,1.4,0.4,3.9,0.4,7.4v27.5h-7.5V87.9c0-3.1-0.3-5.4-0.9-6.9c-0.6-1.5-1.6-2.8-3.1-3.7
	c-1.5-0.9-3.2-1.4-5.2-1.4c-3.2,0-6,1-8.3,3.1c-2.3,2.1-3.5,6-3.5,11.7v24.5L124,115.2L124,115.2z"/>
<path class="st1" d="M187.9,108.4l1.1,6.7c-2.1,0.4-4,0.7-5.7,0.7c-2.7,0-4.8-0.4-6.3-1.3c-1.5-0.9-2.6-2-3.2-3.4
	c-0.6-1.4-0.9-4.4-0.9-9V76.3h-5.5v-5.9h5.5V59.3l7.5-4.6v15.6h7.6v5.9h-7.6v26.2c0,2.2,0.1,3.6,0.4,4.2c0.3,0.6,0.7,1.1,1.3,1.5
	c0.6,0.4,1.5,0.6,2.6,0.6C185.5,108.7,186.6,108.6,187.9,108.4"/>
<path class="st1" d="M201,88.5h24.8c-0.3-3.8-1.3-6.6-2.8-8.5c-2.4-2.9-5.5-4.4-9.3-4.4c-3.5,0-6.4,1.2-8.7,3.5
	C202.5,81.4,201.2,84.6,201,88.5 M225.6,100.7l7.8,1c-1.2,4.6-3.5,8.1-6.8,10.7c-3.3,2.5-7.5,3.8-12.7,3.8c-6.5,0-11.6-2-15.4-6.1
	c-3.8-4-5.7-9.7-5.7-17c0-7.5,1.9-13.4,5.8-17.5c3.8-4.2,8.8-6.3,14.9-6.3c5.9,0,10.8,2,14.5,6.1c3.8,4.1,5.6,9.8,5.6,17.2
	c0,0.4,0,1.1,0,2h-33.1c0.3,4.9,1.7,8.7,4.1,11.3c2.5,2.6,5.6,3.9,9.3,3.9c2.7,0,5.1-0.7,7.1-2.2C223,106.3,224.5,103.9,225.6,100.7
	"/>
<path class="st1" d="M242.8,115.2V70.4h6.8v6.8c1.7-3.2,3.3-5.3,4.8-6.3c1.5-1,3.1-1.5,4.8-1.5c2.5,0,5.1,0.8,7.7,2.4l-2.6,7
	c-1.8-1.1-3.7-1.6-5.5-1.6c-1.6,0-3.1,0.5-4.4,1.5c-1.3,1-2.2,2.4-2.8,4.2c-0.8,2.7-1.3,5.6-1.3,8.8v23.4L242.8,115.2L242.8,115.2z"
	/>
<path class="st1" d="M271.3,115.2V70.4h6.8v6.4c3.3-4.9,8-7.4,14.1-7.4c2.7,0,5.1,0.5,7.4,1.5c2.2,1,3.9,2.2,5,3.8
	c1.1,1.6,1.9,3.4,2.3,5.6c0.3,1.4,0.4,3.9,0.4,7.4v27.5h-7.5V87.9c0-3.1-0.3-5.4-0.9-6.9c-0.6-1.5-1.6-2.8-3.1-3.7
	c-1.5-0.9-3.2-1.4-5.2-1.4c-3.2,0-6,1-8.3,3.1c-2.3,2.1-3.5,6-3.5,11.7v24.5L271.3,115.2L271.3,115.2z"/>
<path class="st1" d="M324.5,88.5h24.8c-0.3-3.8-1.3-6.6-2.8-8.5c-2.4-2.9-5.5-4.4-9.3-4.4c-3.4,0-6.3,1.2-8.7,3.5
	C326.1,81.4,324.8,84.6,324.5,88.5 M349.2,100.7l7.8,1c-1.2,4.6-3.5,8.1-6.8,10.7c-3.3,2.5-7.5,3.8-12.7,3.8c-6.5,0-11.6-2-15.4-6.1
	c-3.8-4-5.7-9.7-5.7-17c0-7.5,1.9-13.4,5.8-17.5c3.8-4.2,8.8-6.3,14.9-6.3c5.9,0,10.8,2,14.5,6.1c3.8,4.1,5.6,9.8,5.6,17.2
	c0,0.4,0,1.1,0,2h-33.1c0.3,4.9,1.7,8.7,4.1,11.3s5.6,3.9,9.3,3.9c2.8,0,5.1-0.7,7-2.2C346.5,106.3,348.1,103.9,349.2,100.7"/>
<path class="st1" d="M382.8,108.4l1.1,6.7c-2.1,0.4-4,0.7-5.7,0.7c-2.7,0-4.8-0.4-6.3-1.3c-1.5-0.9-2.6-2-3.2-3.4
	c-0.6-1.4-0.9-4.4-0.9-9V76.3h-5.5v-5.9h5.5V59.3l7.5-4.6v15.6h7.6v5.9h-7.6v26.2c0,2.2,0.1,3.6,0.4,4.2c0.3,0.6,0.7,1.1,1.3,1.5
	c0.6,0.4,1.5,0.6,2.6,0.6C380.4,108.7,381.5,108.6,382.8,108.4"/>
<rect x="433.7" y="53.4" class="st1" width="8.1" height="61.8"/>
<path class="st1" d="M460.2,92.8c0,5.7,1.2,10,3.6,12.9c2.4,2.8,5.2,4.3,8.5,4.3c3.3,0,6.1-1.4,8.4-4.1c2.3-2.7,3.4-6.9,3.4-12.4
	c0-6.1-1.2-10.6-3.5-13.5c-2.3-2.9-5.2-4.3-8.6-4.3c-3.3,0-6.1,1.4-8.4,4.1C461.3,82.5,460.2,86.9,460.2,92.8 M483.9,115.2v-5.7
	c-2.8,4.4-6.9,6.7-12.4,6.7c-3.5,0-6.8-1-9.7-3c-3-2-5.3-4.7-6.9-8.2c-1.6-3.5-2.4-7.6-2.4-12.2c0-4.5,0.7-8.5,2.2-12.2
	c1.5-3.7,3.7-6.4,6.6-8.4c2.9-1.9,6.2-2.9,9.9-2.9c2.7,0,5,0.6,7.1,1.7c2.1,1.1,3.8,2.6,5.1,4.5V53.4h7.5v61.8H483.9z"/>
<path class="st1" d="M508.4,88.5h24.8c-0.3-3.8-1.3-6.6-2.8-8.5c-2.4-2.9-5.5-4.4-9.3-4.4c-3.5,0-6.3,1.2-8.7,3.5
	C509.9,81.4,508.6,84.6,508.4,88.5 M533.1,100.7l7.8,1c-1.2,4.6-3.5,8.1-6.8,10.7c-3.3,2.5-7.5,3.8-12.7,3.8c-6.5,0-11.6-2-15.4-6.1
	c-3.8-4-5.7-9.7-5.7-17c0-7.5,1.9-13.4,5.8-17.5c3.8-4.2,8.8-6.3,14.9-6.3c5.9,0,10.8,2,14.5,6.1c3.8,4.1,5.6,9.8,5.6,17.2
	c0,0.4,0,1.1,0,2H508c0.3,4.9,1.7,8.7,4.1,11.3c2.5,2.6,5.6,3.9,9.3,3.9c2.8,0,5.1-0.7,7-2.2C530.4,106.3,531.9,103.9,533.1,100.7"
	/>
<path class="st1" d="M555.9,88.5h24.8c-0.3-3.8-1.3-6.6-2.8-8.5c-2.4-2.9-5.5-4.4-9.3-4.4c-3.5,0-6.4,1.2-8.7,3.5
	C557.5,81.4,556.2,84.6,555.9,88.5 M580.6,100.7l7.8,1c-1.2,4.6-3.5,8.1-6.8,10.7c-3.3,2.5-7.5,3.8-12.7,3.8c-6.5,0-11.6-2-15.4-6.1
	c-3.8-4-5.7-9.7-5.7-17c0-7.5,1.9-13.4,5.8-17.5c3.8-4.2,8.8-6.3,14.9-6.3c5.9,0,10.8,2,14.5,6.1c3.8,4.1,5.6,9.8,5.6,17.2
	c0,0.4,0,1.1,0,2h-33.1c0.3,4.9,1.7,8.7,4.1,11.3c2.5,2.6,5.6,3.9,9.3,3.9c2.8,0,5.1-0.7,7.1-2.2
	C577.9,106.3,579.5,103.9,580.6,100.7"/>
<polygon class="st1" points="76,92.4 76,15.9 42.8,15.9 42.8,92.4 59.4,77.2 "/>
<rect x="42.8" y="16" class="st2" width="33.2" height="76.5"/>
<rect x="42.8" y="16" class="st2" width="33.2" height="76.5"/>
<polygon class="st1" points="5.3,16 5.3,126.9 38.5,96.4 38.5,16 "/>
<rect x="5.3" y="16" class="st2" width="33.2" height="110.9"/>
<rect x="5.3" y="16" class="st2" width="33.2" height="110.9"/>
</svg>
