<svg xmlns="http://www.w3.org/2000/svg" xmlns:xlink="http://www.w3.org/1999/xlink" viewBox="0 0 2640.44 1022.47"><defs><style>.cls-1{fill:url(#linear-gradient);}.cls-2{fill:url(#linear-gradient-2);}</style><linearGradient id="linear-gradient" x1="1578.79" y1="1016.88" x2="1246.22" y2="684.31" gradientUnits="userSpaceOnUse"><stop offset="0" stop-color="#0084b4"/><stop offset="1" stop-color="#8ac249"/></linearGradient><linearGradient id="linear-gradient-2" x1="1287.51" y1="694.94" x2="1287.51" gradientUnits="userSpaceOnUse"><stop offset="0" stop-color="#f9a31a"/><stop offset="1" stop-color="#f16622"/></linearGradient></defs><g id="Livello_2" data-name="Livello 2"><g id="Layer_1" data-name="Layer 1"><path class="cls-1" d="M1573.25,1018.41c0,1.33,0,2.73-.06,4.06-159-45.52-291-154.72-366.87-298.27a302.71,302.71,0,0,1,65.56-7.16C1438.32,717,1573.25,852,1573.25,1018.41Z"/><path class="cls-2" d="M1438.2,292.33c0,175.54-100.1,327.77-246.32,402.61a599.49,599.49,0,0,1-55.06-252c0-175.18,74.73-332.87,194.06-443A449.85,449.85,0,0,1,1438.2,292.33Z"/><path d="M203.8,367.54V507a97.57,97.57,0,0,0-33.75-32.24q-24-13.67-54.48-13.67-33.07,0-59.33,14.77A106.92,106.92,0,0,0,15,517.08Q0,543.54,0,578.83q0,34.86,15,61.54a108,108,0,0,0,41.24,41.68q26.24,15,59.33,15,30.87,0,54.92-13.89A97.75,97.75,0,0,0,205.12,649v45.89h30V367.54ZM193,626.25A80.25,80.25,0,0,1,162.11,658q-19.63,11.25-44.33,11.25-24.25,0-43.67-11.25a82.32,82.32,0,0,1-30.88-31.76q-11.46-20.5-11.47-47.42,0-27.35,11.47-47.64a82.76,82.76,0,0,1,30.88-31.54q19.4-11.25,43.67-11.24,24.71,0,44.33,11.24A80.66,80.66,0,0,1,193,531.19q11.27,20.29,11.26,47.64Q204.24,605.74,193,626.25Z"/><path d="M338.33,412.1A22.18,22.18,0,0,1,322,405.48a21.62,21.62,0,0,1-6.62-15.88A20.9,20.9,0,0,1,322,373.94a22.59,22.59,0,0,1,16.32-6.4,23,23,0,0,1,16.32,6.18,20.24,20.24,0,0,1,6.61,15.44,22.58,22.58,0,0,1-6.39,16.32C350.6,409.89,345.1,412.1,338.33,412.1ZM322.45,694.84V463.26h31.32V694.84Z"/><path d="M629,517.3a105.34,105.34,0,0,0-39.92-41.47q-25.38-14.76-58-14.77-32.21,0-58,15.22A109.27,109.27,0,0,0,432.51,518q-14.79,26.46-14.78,60.87t15.44,61.09A110.43,110.43,0,0,0,476,681.83q27.33,15.23,63.52,15.22,27.78,0,50.94-9.7A99.37,99.37,0,0,0,629,659.11l-17.64-20.29a82,82,0,0,1-31.54,22.94,103.17,103.17,0,0,1-39.48,7.5q-26.91,0-47.86-11.25a81.51,81.51,0,0,1-32.64-31.32c-6.54-11.21-10.29-23.94-11.35-38.15H643.13c0-1.77.07-3.46.22-5.08s.23-3.15.23-4.63Q643.58,544,629,517.3ZM458.76,529.87A76.65,76.65,0,0,1,488.31,499q19-11,42.78-11,24.25,0,42.79,11a79.71,79.71,0,0,1,29.34,30.66,88.19,88.19,0,0,1,10.37,35.51h-165A91,91,0,0,1,458.76,529.87Z"/><path d="M818.69,658.23Q805,670.14,784.28,670.14q-19.41,0-29.77-11T744.14,627.8V489.29h70.58v-26H744.14V412.1H712.82v51.16H671.36v26h41.46V629.56q0,32.21,17.65,49.84t50.28,17.65a91.25,91.25,0,0,0,26.69-4,57.93,57.93,0,0,0,22.28-12.35Z"/><path d="M1037.26,483.33q-24.5-22.26-69.48-22.27a164.88,164.88,0,0,0-52,8.16q-24.71,8.16-42.35,23.16l14.12,23.37q14.12-12.35,34.41-19.84a122.34,122.34,0,0,1,42.78-7.5q32.64,0,49.18,15.88t16.55,45.43v14.11H956.75q-33.07,0-52.71,9T875.81,596.7a64.07,64.07,0,0,0-8.6,32.86q0,19.85,10.14,35.07t29.33,23.82q19.2,8.59,45.22,8.6,33.09,0,54.92-13.67a74.91,74.91,0,0,0,24.92-24.94v36.4h30V551Q1061.74,505.62,1037.26,483.33Zm-34.85,176.89q-19.2,12.13-45.66,12.13-27.78,0-43.22-11.91t-15.44-31.76a38.44,38.44,0,0,1,13-29.56q13-11.91,46.54-11.91h72.78v37.94Q1021.58,648.09,1002.41,660.22Z"/><path d="M1555.77,697.05a177.47,177.47,0,0,1-54.26-8.16q-25.59-8.16-40.14-20.51l14.12-24.7q14.1,10.58,36.17,18.3A139.05,139.05,0,0,0,1558,669.7q33.09,0,47.64-10.36t14.56-27.57q0-12.79-8.17-20.08t-21.38-11a265.44,265.44,0,0,0-29.56-6.4q-16.32-2.64-32.42-6.17a118.88,118.88,0,0,1-29.33-10.37,57.39,57.39,0,0,1-21.4-18.75q-8.16-11.91-8.16-31.76a57.52,57.52,0,0,1,10.58-34q10.59-15,31.11-23.6t50.06-8.6a175.15,175.15,0,0,1,45,5.95q22.5,6,37,15.66l-13.67,25.15a105.27,105.27,0,0,0-33.08-15.22A138.47,138.47,0,0,0,1561.5,488q-31.32,0-46.09,10.81t-14.78,27.57q0,13.23,8.16,20.73t21.61,11.69A219,219,0,0,0,1560,565.6q16.11,2.64,32.2,6.4a145.92,145.92,0,0,1,29.56,10.14,54.41,54.41,0,0,1,21.62,18.09q8.14,11.68,8.16,30.65,0,20.29-11.26,35.07t-32.64,22.94Q1586.2,697.05,1555.77,697.05Z"/><path d="M1803.22,697.05q-33.53,0-60.21-15.22a111.82,111.82,0,0,1-42.13-41.91q-15.45-26.67-15.44-61.09,0-34.83,15.44-61.31a111.06,111.06,0,0,1,41.91-41.46q26.46-15,60.43-15,34.41,0,61.09,15a109.11,109.11,0,0,1,41.91,41.46q15.21,26.46,15.22,61.31,0,34.41-15.22,61.09a109.87,109.87,0,0,1-42.13,41.91Q1837.18,697.06,1803.22,697.05Zm0-27.79q25.14,0,44.55-11.25a80.75,80.75,0,0,0,30.66-31.76q11.25-20.5,11.25-47.42,0-27.35-11.25-47.64a81.16,81.16,0,0,0-30.66-31.54q-19.41-11.25-44.11-11.24t-44.11,11.24a82.66,82.66,0,0,0-30.87,31.54q-11.48,20.29-11.47,47.64,0,26.91,11.47,47.42A82.22,82.22,0,0,0,1759.55,658Q1779,669.26,1803.22,669.26Z"/><path d="M2081.56,697.05q-34.41,0-61.54-15.22a111,111,0,0,1-42.57-41.91Q1962,613.25,1962,578.83q0-34.83,15.43-61.31A109.81,109.81,0,0,1,2020,476.06q27.13-15,61.54-15,29.55,0,53.37,11.47a86.6,86.6,0,0,1,37.5,34.4l-23.38,15.88q-11.91-17.64-29.56-26a88.22,88.22,0,0,0-38.37-8.38q-24.7,0-44.56,11.24a81.74,81.74,0,0,0-31.31,31.54q-11.48,20.29-11.47,47.64t11.47,47.64A81.68,81.68,0,0,0,2036.56,658q19.86,11.25,44.56,11.25a88.22,88.22,0,0,0,38.37-8.38,74.69,74.69,0,0,0,29.56-25.58l23.38,15.87a88.71,88.71,0,0,1-37.5,34.19Q2111.11,697,2081.56,697.05Z"/><path d="M2246.09,412.1a22.18,22.18,0,0,1-16.32-6.62,21.62,21.62,0,0,1-6.62-15.88,20.9,20.9,0,0,1,6.62-15.66,22.59,22.59,0,0,1,16.32-6.4,23,23,0,0,1,16.32,6.18,20.24,20.24,0,0,1,6.61,15.44,22.58,22.58,0,0,1-6.39,16.32C2258.36,409.89,2252.86,412.1,2246.09,412.1Zm-15.88,282.74V463.26h31.32V694.84Z"/><path d="M2499.5,483.33Q2475,461.07,2430,461.06a164.79,164.79,0,0,0-52.05,8.16q-24.7,8.16-42.34,23.16l14.11,23.37q14.11-12.35,34.41-19.84a122.38,122.38,0,0,1,42.78-7.5q32.66,0,49.19,15.88t16.54,45.43v14.11H2419q-33.09,0-52.72,9t-28.23,23.82a64.17,64.17,0,0,0-8.6,32.86q0,19.85,10.14,35.07t29.34,23.82q19.18,8.59,45.21,8.6,33.09,0,54.92-13.67A74.91,74.91,0,0,0,2494,658.44v36.4h30V551Q2524,505.62,2499.5,483.33Zm-34.84,176.89q-19.18,12.13-45.65,12.13-27.8,0-43.24-11.91t-15.44-31.76a38.45,38.45,0,0,1,13-29.56q13-11.91,46.53-11.91h72.79v37.94Q2483.84,648.09,2464.66,660.22Z"/><path d="M2609.12,694.84V367.54h31.32v327.3Z"/></g></g></svg>