<svg width="659" height="207" viewBox="0 0 659 207" fill="none" xmlns="http://www.w3.org/2000/svg">
<path d="M209.08 91.89H193.57V84.74C189.317 90.0933 184.037 92.77 177.73 92.77C171.497 92.77 166.253 90.9733 162 87.38C157.747 83.7133 155.62 78.8733 155.62 72.86C155.62 66.7733 157.82 62.2267 162.22 59.22C166.62 56.2133 172.633 54.71 180.26 54.71H192.58V54.38C192.58 48.0733 189.243 44.92 182.57 44.92C179.71 44.92 176.667 45.5067 173.44 46.68C170.287 47.78 167.61 49.1733 165.41 50.86L158.04 40.19C165.813 34.5433 174.687 31.72 184.66 31.72C191.847 31.72 197.713 33.5167 202.26 37.11C206.807 40.7033 209.08 46.3867 209.08 54.16V91.89ZM192.47 69.34V66.48H182.13C175.53 66.48 172.23 68.5333 172.23 72.64C172.23 74.7667 173 76.4167 174.54 77.59C176.153 78.69 178.427 79.24 181.36 79.24C184.293 79.24 186.86 78.36 189.06 76.6C191.333 74.7667 192.47 72.3467 192.47 69.34Z" fill="white"/>
<path d="M239.321 91.89L215.891 32.6H233.051L247.791 69.89L262.531 32.6H279.691L256.261 91.89H239.321Z" fill="white"/>
<path d="M303.774 91.89L280.344 32.6H297.504L312.244 69.89L326.984 32.6H344.144L320.714 91.89H303.774Z" fill="white"/>
<path d="M364.188 62.3C364.188 67.14 365.544 71.1 368.258 74.18C371.044 77.1867 374.564 78.69 378.818 78.69C383.144 78.69 386.664 77.1867 389.378 74.18C392.164 71.1 393.558 67.14 393.558 62.3C393.558 57.46 392.164 53.5 389.378 50.42C386.664 47.34 383.144 45.8 378.818 45.8C374.564 45.8 371.044 47.34 368.258 50.42C365.544 53.5 364.188 57.46 364.188 62.3ZM410.168 62.3C410.168 70.88 407.198 78.1033 401.258 83.97C395.318 89.8367 387.838 92.77 378.818 92.77C369.871 92.77 362.428 89.8367 356.488 83.97C350.548 78.1033 347.578 70.88 347.578 62.3C347.578 53.72 350.548 46.4967 356.488 40.63C362.428 34.69 369.871 31.72 378.818 31.72C387.838 31.72 395.318 34.69 401.258 40.63C407.198 46.4967 410.168 53.72 410.168 62.3Z" fill="white"/>
<path d="M450.803 78.14C456.303 78.14 461.253 75.39 465.653 69.89L475.443 80.89C467.817 88.81 459.567 92.77 450.693 92.77C441.82 92.77 434.303 89.9833 428.143 84.41C422.057 78.7633 419.013 71.43 419.013 62.41C419.013 53.3167 422.093 45.9467 428.253 40.3C434.487 34.58 441.857 31.72 450.363 31.72C454.617 31.72 458.907 32.6 463.233 34.36C467.633 36.12 471.483 38.7233 474.783 42.17L466.203 53.39C464.297 51.1167 461.95 49.3567 459.163 48.11C456.45 46.8633 453.737 46.24 451.023 46.24C446.697 46.24 442.957 47.67 439.803 50.53C436.723 53.3167 435.183 57.24 435.183 62.3C435.183 67.2867 436.723 71.1733 439.803 73.96C442.957 76.7467 446.623 78.14 450.803 78.14Z" fill="white"/>
<path d="M536.717 91.89H521.207V84.74C516.953 90.0933 511.673 92.77 505.367 92.77C499.133 92.77 493.89 90.9733 489.637 87.38C485.383 83.7133 483.257 78.8733 483.257 72.86C483.257 66.7733 485.457 62.2267 489.857 59.22C494.257 56.2133 500.27 54.71 507.897 54.71H520.217V54.38C520.217 48.0733 516.88 44.92 510.207 44.92C507.347 44.92 504.303 45.5067 501.077 46.68C497.923 47.78 495.247 49.1733 493.047 50.86L485.677 40.19C493.45 34.5433 502.323 31.72 512.297 31.72C519.483 31.72 525.35 33.5167 529.897 37.11C534.443 40.7033 536.717 46.3867 536.717 54.16V91.89ZM520.107 69.34V66.48H509.767C503.167 66.48 499.867 68.5333 499.867 72.64C499.867 74.7667 500.637 76.4167 502.177 77.59C503.79 78.69 506.063 79.24 508.997 79.24C511.93 79.24 514.497 78.36 516.697 76.6C518.97 74.7667 520.107 72.3467 520.107 69.34Z" fill="white"/>
<path d="M570.805 44.59V71.1C570.805 73.3733 571.391 75.17 572.565 76.49C573.738 77.7367 575.131 78.36 576.745 78.36C579.825 78.36 582.428 76.9667 584.555 74.18L590.715 85.73C585.581 90.4233 580.155 92.77 574.435 92.77C568.788 92.77 563.985 90.9 560.025 87.16C556.138 83.42 554.195 78.3233 554.195 71.87V44.59H547.265V32.71H554.195V15H570.805V32.71H585.105V44.59H570.805Z" fill="white"/>
<path d="M612.117 62.3C612.117 67.14 613.474 71.1 616.187 74.18C618.974 77.1867 622.494 78.69 626.747 78.69C631.074 78.69 634.594 77.1867 637.307 74.18C640.094 71.1 641.487 67.14 641.487 62.3C641.487 57.46 640.094 53.5 637.307 50.42C634.594 47.34 631.074 45.8 626.747 45.8C622.494 45.8 618.974 47.34 616.187 50.42C613.474 53.5 612.117 57.46 612.117 62.3ZM658.097 62.3C658.097 70.88 655.127 78.1033 649.187 83.97C643.247 89.8367 635.767 92.77 626.747 92.77C617.801 92.77 610.357 89.8367 604.417 83.97C598.477 78.1033 595.507 70.88 595.507 62.3C595.507 53.72 598.477 46.4967 604.417 40.63C610.357 34.69 617.801 31.72 626.747 31.72C635.767 31.72 643.247 34.69 649.187 40.63C655.127 46.4967 658.097 53.72 658.097 62.3Z" fill="white"/>
<path d="M178.5 129.3V133.26H192.8V145.14H178.5V191.89H161.89V145.14H154.96V133.26H161.89V129.63C161.89 123.177 163.833 118.08 167.72 114.34C171.68 110.527 176.557 108.62 182.35 108.62C188.217 108.62 193.533 110.82 198.3 115.22L192.36 126.33C189.94 123.543 187.263 122.15 184.33 122.15C182.643 122.15 181.25 122.773 180.15 124.02C179.05 125.193 178.5 126.953 178.5 129.3Z" fill="white"/>
<path d="M219.568 191.89H203.068V110.27H219.568V191.89Z" fill="white"/>
<path d="M285.457 191.89H269.947V184.74C265.694 190.093 260.414 192.77 254.107 192.77C247.874 192.77 242.63 190.973 238.377 187.38C234.124 183.713 231.997 178.873 231.997 172.86C231.997 166.773 234.197 162.227 238.597 159.22C242.997 156.213 249.01 154.71 256.637 154.71H268.957V154.38C268.957 148.073 265.62 144.92 258.947 144.92C256.087 144.92 253.044 145.507 249.817 146.68C246.664 147.78 243.987 149.173 241.787 150.86L234.417 140.19C242.19 134.543 251.064 131.72 261.037 131.72C268.224 131.72 274.09 133.517 278.637 137.11C283.184 140.703 285.457 146.387 285.457 154.16V191.89ZM268.847 169.34V166.48H258.507C251.907 166.48 248.607 168.533 248.607 172.64C248.607 174.767 249.377 176.417 250.917 177.59C252.53 178.69 254.804 179.24 257.737 179.24C260.67 179.24 263.237 178.36 265.437 176.6C267.71 174.767 268.847 172.347 268.847 169.34Z" fill="white"/>
<path d="M345.049 173.52C345.049 179.313 342.886 183.97 338.559 187.49C334.306 191.01 328.879 192.77 322.279 192.77C317.879 192.77 313.296 192 308.529 190.46C303.763 188.847 299.473 186.5 295.659 183.42L302.919 173.08C309.079 177.847 315.643 180.23 322.609 180.23C324.736 180.23 326.423 179.827 327.669 179.02C328.916 178.14 329.539 177.003 329.539 175.61C329.539 174.217 328.659 172.933 326.899 171.76C325.213 170.587 322.719 169.487 319.419 168.46C316.193 167.433 313.699 166.553 311.939 165.82C310.253 165.087 308.309 164.023 306.109 162.63C301.636 159.843 299.399 155.737 299.399 150.31C299.399 144.81 301.599 140.337 305.999 136.89C310.399 133.443 316.083 131.72 323.049 131.72C330.016 131.72 336.983 134.067 343.949 138.76L337.789 149.76C332.656 146.24 327.523 144.48 322.389 144.48C317.329 144.48 314.799 145.873 314.799 148.66C314.799 150.2 315.606 151.41 317.219 152.29C318.833 153.17 321.509 154.197 325.249 155.37C328.989 156.543 331.629 157.46 333.169 158.12C334.783 158.707 336.689 159.66 338.889 160.98C342.996 163.473 345.049 167.653 345.049 173.52Z" fill="white"/>
<path d="M374.148 159.99V191.89H357.648V110.27H374.148V139.31C379.135 134.25 384.708 131.72 390.868 131.72C397.101 131.72 402.345 133.92 406.598 138.32C410.851 142.72 412.978 148.587 412.978 155.92V191.89H396.478V159.55C396.478 150.457 393.141 145.91 386.468 145.91C383.168 145.91 380.271 147.12 377.778 149.54C375.358 151.887 374.148 155.37 374.148 159.99Z" fill="white"/>
<path d="M110.794 98.5226L55.6178 1.34151C54.1746 -1.20037 50.2829 0.152322 50.7273 3.04133L60.5701 67.0192C61.7294 74.5548 57.1835 81.7997 49.894 84.034L16.8277 94.1693C10.9293 95.9772 8.21818 102.779 11.2558 108.149L66.3009 205.454C67.7397 207.998 71.6325 206.653 71.1943 203.764L61.1413 137.476C60.0865 130.521 64.3421 123.86 71.096 121.893L105.358 111.916C111.069 110.253 113.731 103.695 110.794 98.5226Z" fill="url(#paint0_linear_305_5963)"/>
<path d="M110.794 98.5226L55.6178 1.34151C54.1746 -1.20037 50.2829 0.152322 50.7273 3.04133L60.5701 67.0192C61.7294 74.5548 57.1835 81.7997 49.894 84.034L16.8277 94.1693C10.9293 95.9772 8.21818 102.779 11.2558 108.149L66.3009 205.454C67.7397 207.998 71.6325 206.653 71.1943 203.764L61.1413 137.476C60.0865 130.521 64.3421 123.86 71.096 121.893L105.358 111.916C111.069 110.253 113.731 103.695 110.794 98.5226Z" fill="url(#paint1_radial_305_5963)"/>
<mask id="mask0_305_5963" style="mask-type:alpha" maskUnits="userSpaceOnUse" x="10" y="0" width="102" height="207">
<path d="M110.794 98.5226L55.6178 1.34151C54.1746 -1.20037 50.2829 0.152322 50.7273 3.04133L60.5701 67.0192C61.7294 74.5548 57.1835 81.7997 49.894 84.034L16.8277 94.1693C10.9293 95.9772 8.21818 102.779 11.2558 108.149L66.3009 205.454C67.7397 207.998 71.6325 206.653 71.1943 203.764L61.1413 137.476C60.0865 130.521 64.3421 123.86 71.096 121.893L105.358 111.916C111.069 110.253 113.731 103.695 110.794 98.5226Z" fill="#C4C4C4"/>
</mask>
<g mask="url(#mask0_305_5963)">
<path d="M57.6596 125.879L73.6105 121.161L85.0165 187.843L67.4688 217.016L41.1165 163.741C33.6869 148.721 41.5908 130.632 57.6596 125.879Z" fill="url(#paint2_linear_305_5963)"/>
</g>
<path d="M21.12 32.3203C27.7866 32.3203 32.9066 33.9203 36.48 37.1203C40.0533 40.267 41.84 45.0403 41.84 51.4403V76.0003H30.16V70.6403C27.8133 74.6403 23.44 76.6403 17.04 76.6403C13.7333 76.6403 10.8533 76.0803 8.39996 74.9603C5.99996 73.8403 4.15996 72.2936 2.87996 70.3203C1.59996 68.347 0.959961 66.107 0.959961 63.6003C0.959961 59.6003 2.45329 56.4536 5.43996 54.1603C8.47996 51.867 13.1466 50.7203 19.44 50.7203H29.36C29.36 48.0003 28.5333 45.9203 26.88 44.4803C25.2266 42.987 22.7466 42.2403 19.44 42.2403C17.1466 42.2403 14.88 42.6136 12.64 43.3603C10.4533 44.0536 8.58663 45.0136 7.03996 46.2403L2.55996 37.5203C4.90663 35.867 7.70663 34.587 10.96 33.6803C14.2666 32.7736 17.6533 32.3203 21.12 32.3203ZM20.16 68.2403C22.2933 68.2403 24.1866 67.7603 25.84 66.8003C27.4933 65.787 28.6666 64.3203 29.36 62.4003V58.0003H20.8C15.68 58.0003 13.12 59.6803 13.12 63.0403C13.12 64.6403 13.7333 65.9203 14.96 66.8803C16.24 67.787 17.9733 68.2403 20.16 68.2403Z" fill="white"/>
<defs>
<linearGradient id="paint0_linear_305_5963" x1="60.8884" y1="26.8416" x2="13.2902" y2="184.991" gradientUnits="userSpaceOnUse">
<stop stop-color="#FEC015"/>
<stop offset="1" stop-color="#FBA924"/>
</linearGradient>
<radialGradient id="paint1_radial_305_5963" cx="0" cy="0" r="1" gradientUnits="userSpaceOnUse" gradientTransform="translate(-11.0573 92.2069) rotate(19.5024) scale(134.034 66.1096)">
<stop stop-color="#F7922A"/>
<stop offset="1" stop-color="#FFD204"/>
</radialGradient>
<linearGradient id="paint2_linear_305_5963" x1="32.3733" y1="134.761" x2="76.9007" y2="208.68" gradientUnits="userSpaceOnUse">
<stop stop-color="#F68E2C"/>
<stop offset="1" stop-color="#FFD602"/>
</linearGradient>
</defs>
</svg>
