<svg xmlns="http://www.w3.org/2000/svg" id="Livello_1" viewBox="0 0 800 150"><defs><style>.cls-1{fill:#e40369;}</style></defs><g id="logo_-_originale"><g><path d="M36.65,52.1h16.05l35.52,93.4h-18.68l-8.68-23.29H28.23l-8.55,23.29H1L36.65,52.1Zm20.92,57.36l-12.89-36.7-13.42,36.7h26.31Z"></path><path d="M98.48,145.51V52.1h33.94c7.63,0,14.32,1.23,20.06,3.68,5.74,2.46,10.54,5.79,14.41,10,3.86,4.21,6.75,9.14,8.68,14.8,1.93,5.66,2.89,11.69,2.89,18.09,0,7.1-1.07,13.53-3.22,19.27-2.15,5.75-5.24,10.66-9.27,14.73-4.03,4.08-8.88,7.24-14.54,9.47-5.66,2.24-11.99,3.35-19.01,3.35h-33.94Zm61.7-46.83c0-4.47-.61-8.59-1.84-12.37-1.23-3.77-3.03-7.02-5.39-9.74-2.37-2.72-5.28-4.82-8.75-6.31-3.47-1.49-7.39-2.24-11.77-2.24h-15.79v61.57h15.79c4.47,0,8.44-.79,11.91-2.37,3.46-1.58,6.36-3.75,8.68-6.51,2.32-2.76,4.1-6.03,5.33-9.8,1.23-3.77,1.84-7.85,1.84-12.23Z"></path><path d="M199.12,52.1l25.26,70.65,25-70.65h19.07l-36.44,93.4h-15.26l-36.7-93.4h19.08Z"></path><path d="M343.17,137.35v8.16h-62.75V52.1h61.57v8.16h-52.36v33.68h45.65v7.76h-45.65v35.65h53.54Z"></path><path d="M360.53,145.51V52.1h39.47c4.03,0,7.74,.86,11.12,2.57,3.38,1.71,6.29,3.95,8.75,6.71,2.45,2.76,4.36,5.9,5.72,9.41,1.36,3.51,2.04,7.06,2.04,10.66s-.51,6.69-1.51,9.8c-1.01,3.11-2.41,5.92-4.21,8.42-1.8,2.5-3.97,4.6-6.51,6.31-2.54,1.71-5.39,2.87-8.55,3.49l22.89,36.05h-10.39l-21.97-34.47h-27.63v34.47h-9.21Zm9.21-42.62h30.52c2.72,0,5.2-.59,7.43-1.78,2.24-1.18,4.14-2.78,5.72-4.8,1.58-2.02,2.81-4.3,3.68-6.84,.88-2.54,1.32-5.22,1.32-8.02s-.51-5.5-1.51-8.09c-1.01-2.59-2.37-4.84-4.08-6.78-1.71-1.93-3.73-3.46-6.05-4.6-2.33-1.14-4.76-1.71-7.3-1.71h-29.73v42.62Z"></path><path d="M511.3,60.26h-33.28v85.25h-9.21V60.26h-33.28v-8.16h75.78v8.16Z"></path><path d="M604.96,145.51V52.1h39.47c4.03,0,7.74,.86,11.12,2.57,3.37,1.71,6.29,3.95,8.75,6.71,2.45,2.76,4.36,5.9,5.72,9.41,1.36,3.51,2.04,7.06,2.04,10.66s-.51,6.69-1.51,9.8c-1.01,3.11-2.41,5.92-4.21,8.42-1.8,2.5-3.97,4.6-6.51,6.31-2.54,1.71-5.39,2.87-8.55,3.49l22.89,36.05h-10.39l-21.97-34.47h-27.63v34.47h-9.21Zm9.21-42.62h30.52c2.72,0,5.2-.59,7.43-1.78,2.24-1.18,4.14-2.78,5.72-4.8,1.58-2.02,2.81-4.3,3.68-6.84,.88-2.54,1.32-5.22,1.32-8.02s-.51-5.5-1.51-8.09c-1.01-2.59-2.37-4.84-4.08-6.78-1.71-1.93-3.73-3.46-6.05-4.6-2.33-1.14-4.76-1.71-7.3-1.71h-29.73v42.62Z"></path><path d="M690.87,145.51V52.1h9.21v93.4h-9.21Z"></path><path d="M752.43,52.1h7.76l38.81,93.4h-9.73l-12.1-29.21h-41.97l-11.97,29.21h-9.87l39.07-93.4Zm22.63,56.96l-18.81-46.18-19.08,46.18h37.89Z"></path></g><path d="M509.09,96.4L548.03,3h8.02l38.94,93.4h-9.6l-33.28-81.96-33.41,81.96h-9.6Z"></path><g><rect class="cls-1" x="527.8" y="96.53" width="11.11" height="32.32"></rect><rect class="cls-1" x="565.18" y="96.53" width="11.11" height="24.24"></rect><rect class="cls-1" x="546.49" y="96.53" width="11.11" height="44.45"></rect></g></g></svg>