<svg xmlns="http://www.w3.org/2000/svg" xmlns:xlink="http://www.w3.org/1999/xlink" id="Livello_1" x="0px" y="0px" viewBox="0 0 544.8 457.4" style="enable-background:new 0 0 544.8 457.4;" xml:space="preserve"><style type="text/css">	.st0{fill:#010202;}</style><path class="st0" d="M6.7,125.3c0,41.6,0,83.3,0,124.9c0,0.5,0,0.9,0,1.4c0,12.6,0,25.1,0,37.7c0,2.5,0.6,3,3,3 c13.1,0,26.2,0,39.3,0c1.1,0,2.1-0.2,3.3-0.4c-0.6-1.1-1-2.1-1.5-3c-4.1-8.1-7-16.5-7.5-25.6c-0.4-8.6,1.8-16.2,8-22.4 c3.6-3.6,3.8-7.4,0.5-11.4c-2.2-2.7-4.5-5.4-6.7-8.2c-5.7-7.3-10.7-15.1-14.4-23.7c-3-7-2.7-13.7,1.3-20.3 c3.6-5.9,6.9-11.9,10.2-17.9c3.3-6,5.8-12.4,10.2-17.9c4.3-5.3,8-11,13.2-15.5c4.6-4,9.9-6.7,16.1-7.2c3.6-0.3,7.2-0.2,10.6-1.4 c2.7-1,3.5-1.7,3.6-4.7c-0.9,0-1.8-0.2-2.4,0c-1.2,0.5-2.2,0.2-3.3-0.1c-2.4-0.8-2.8-1.3-1.8-3.6c1.2-2.7,2.1-5.4,2.7-8.3 c0.4-2.3,1.1-4.6,0.6-6.9c-0.2-0.8-0.5-1.6-0.4-2.3c0.5-2.6,0.9-5.2,1.7-7.7c2.4-8.1,6.6-15,13.9-19.6c4.5-2.9,9.2-3.2,13.8-0.2 c7.3,4.9,12,11.7,13.8,20.4c1,4.9,0.6,9.7,0.1,14.6c-0.3,2.9-0.3,5.9,0.9,8.6c1,2.4,0.8,4.7-0.5,6.8c-1.2,2.1-2.5,4-4,5.9 c-1.1,1.5-2.7,2.3-4.7,2.3c-1.6,0-2.1,0.5-1.9,2c0.6,6.5,3,12.1,8.4,16.1c4.6,3.4,8.5,7.4,10.4,13c2.5,7.5,3.1,15.1,2.7,22.9 c-0.2,3.6-1.1,7-3.3,9.9c-1,1.2-1.4,2.5-1.4,4.1c0,4.4,0,8.8-0.1,13.2c-0.1,2.3,0.4,4.2,2.1,6c2.6,2.8,5.1,5.4,8.7,6.9 c3.2,1.3,6.2,3.1,9.1,4.8c2.8,1.6,5.6,2.8,8.8,1.9c1.7-0.5,3.4-1.2,4.9-2.1c11.4-6.6,23.1-12.6,35.5-17.1c4.1-1.5,7.4-4,9.4-8.2 c1.5-3.1,4.1-5.1,7.6-5.8c2.3-0.4,4.6-1.1,6.9-1.4c3.6-0.6,7.2-1.4,10.8-0.9c3.3,0.5,6,2.2,7.9,5.1c1.6,2.4,1,5-1.6,6.2 c-1.5,0.7-3.2,0.9-4.9,1.3c-1.1,0.2-2.2,0.2-3.2,0.4c-2,0.4-3.6,1.7-5,3.1c-2.3,2.2-4.8,3.8-8.2,3.8c-3.4-0.1-6.7,0.7-9.9,2 c-5.6,2.4-10.3,5.5-12.8,11.6c-2.5,6-7.3,10-13.3,12.4c-2.4,0.9-4.8,1.6-7.2,2.4c-2.9,0.9-5.9,1.3-8.9,0.7c-3.9-0.7-7.5,0-10.9,2.2 c-1.4,0.9-2.9,1.7-4.3,2.5c-5.1,2.9-10.3,5.8-15.4,8.8c-6,3.5-5.6,12-1.3,15.5c1.1,0.9,2.2,1.6,3.4,2.3c3.4,1.9,6.1,4.5,7.8,8.1 c2,4.4,4.1,8.7,6.1,13c1,2,2.4,2.8,4.7,2.6c5.1-0.6,10.3-1.2,15.4-1.9c6.2-0.8,12.3-1.6,18.5-2.4c5.2-0.7,10.4-1.4,15.5-2.4 c11.6-2.4,21.6-7.9,30.3-15.7c15.4-13.9,24-31.2,25.8-51.8c0.7-8.5,0.1-17.1-1.3-25.5c-2.9-16.8-11.6-30.2-25.4-40.2 c-8-5.8-17.1-9.4-26.5-12.4c-1.7-0.5-3.4-1.1-5.6-1.7c0.7-0.4,1-0.7,1.4-0.9c2.4-1,4.8-1.9,7.1-3c11.9-5.4,21.7-13.2,28.3-24.6 c8.6-14.9,11.2-30.9,7.8-47.8c-3.2-16-11.1-29.1-23.8-39.4c-14.7-11.9-31.8-17.4-50.5-17.8C167.8,3.9,150.8,4,133.7,4 c-41,0-81.9,0-122.9,0C6.9,4,6.7,4.3,6.7,8.1c0,20.6,0.1,41.1,0.1,61.7C6.7,88.3,6.7,106.8,6.7,125.3"></path><path class="st0" d="M21.2,356.6h16.4l2,6.6H56L38,313H21.2l-18,50.2h16.1L21.2,356.6z M29.5,328.2l5.3,18H24.4L29.5,328.2z"></path><polygon class="st0" points="62,313 62,363.3 101.1,363.3 101.1,351.5 78.5,351.5 78.5,313 "></polygon><polygon class="st0" points="130.2,363.3 130.2,326.2 145,326.2 145,313 99,313 99,326.2 113.8,326.2 113.8,363.3 "></polygon><polygon class="st0" points="193.4,324.8 193.4,313 152.5,313 152.5,363.3 194.4,363.3 194.4,351.5 168.9,351.5 168.9,343.7  189.7,343.7 189.7,331.9 168.9,331.9 168.9,324.8 "></polygon><path class="st0" d="M247.7,327.3c0-9.8-5.5-14.3-22.2-14.3h-23.7v50.2h16.5v-17.5h5c7.7,0,8.8,2.2,8.8,8.7c0,4.5,0.4,7.7,0.8,8.8 h16.7v-1.5c-2,0-1.7-2.2-1.7-8.8c0-10.1-3.2-11.4-8.5-13.3C245.2,338,247.7,333.1,247.7,327.3 M224.7,334.7h-6.5v-10h7.7 c3.8,0,6.6,1.7,6.6,5.2C232.5,333.5,229.8,334.7,224.7,334.7"></path><polygon class="st0" points="272,313 256.6,313 256.6,363.3 272.4,363.3 272.4,347.4 271.7,335.9 289.7,363.3 305.1,363.3  305.1,313 289.3,313 289.3,329 289.9,340.4 "></polygon><path class="st0" d="M328.6,313l-18,50.2h16.1l1.9-6.6H345l2,6.6h16.4l-18-50.2H328.6z M331.8,346.2l5.1-18l5.3,18H331.8z"></path><polygon class="st0" points="391.1,363.3 391.1,326.2 405.9,326.2 405.9,313 359.9,313 359.9,326.2 374.7,326.2 374.7,363.3 "></polygon><rect x="413.4" y="313" class="st0" width="16.5" height="50.2"></rect><polygon class="st0" points="453.3,313 436.7,313 453.9,363.3 470.4,363.3 487.8,313 471.2,313 462.1,346.4 "></polygon><polygon class="st0" points="535.7,324.8 535.7,313 494.7,313 494.7,363.3 536.7,363.3 536.7,351.5 511.2,351.5 511.2,343.7  531.9,343.7 531.9,331.9 511.2,331.9 511.2,324.8 "></polygon><path class="st0" d="M536.7,384.7H3.2v69.6h533.4V384.7z M126.4,409.4H106v7.2h19.1v6.2H106v13.1h-8.9v-32.8h29.3V409.4z  M173.9,435.9h-30.8v-32.8h30.6v6.2H152v6.8h20.6v6H152v7.5h21.9V435.9z M208,436.8c-8,0-18.4-1-18.5-11.2h10 c0.1,4.5,4.6,5.3,8.4,5.3c4.2,0,7-1.2,7-4.1c0-2.5-2-3.2-5.6-3.8l-8.1-1.2c-5.7-0.9-11.2-2.6-11.2-9.3c0-7.3,6-10.3,16.3-10.3 c6.7,0,16.8,1.2,17.3,10.4h-9.9c-0.6-4.3-4.6-4.7-8.2-4.7c-3.7,0-6.1,1.6-6.1,3.9c0,1.7,1.5,2.7,3.8,3.1l11.1,1.8 c6,1,10.5,3.2,10.5,9.2C225,431.9,220.9,436.8,208,436.8 M272,409.4h-12.2v26.5h-8.9v-26.5h-12.2v-6.2H272V409.4z M296.8,435.9h-8.9 v-32.8h8.9V435.9z M335.8,435.9h-9.5l-14.6-32.8h9.8l9.5,25l9.5-25h9.8L335.8,435.9z M389,435.9l-2.7-6.7h-15.1l-2.7,6.7H359 l14.4-32.8h10.7l14.4,32.8H389z M442.8,435.9h-28.9v-32.8h8.9v26.3h20V435.9z"></path><polygon class="st0" points="373.7,423.2 384,423.2 378.8,410.2 "></polygon><path class="st0" d="M299.8,292.3h0.1c31.8,0,63.6,0,95.4,0c47,0,94,0,141,0c3.3,0,3.5-0.2,3.5-3.6v-58.3c0-3.5-0.2-3.7-3.7-3.7 c-48.8,0-97.7,0-146.5,0c-3.6,0-4-0.4-4-4c0-15.5,0-31,0-46.5c0-1.3,0-2.7,0-4c0-1.1,0.5-1.8,1.7-1.9c1,0,1.9-0.1,2.9-0.1 c43.7,0,87.3,0,131,0c3.3,0,3.3,0,3.3-3.4v-51.3c0-0.6,0-1.3,0-1.9c0-1.1-0.5-1.7-1.7-1.8c-1,0-2-0.1-3-0.1 c-43.4,0-86.7,0.1-130.1,0.1c-0.7,0-1.4,0-2.1-0.1c-1.4-0.2-1.9-0.8-2-2.3c0-0.5,0-0.9,0-1.4c0-12.4,0-24.8,0-37.2 c0-1.2,0-2.4,0-3.6c0.1-1.3,0.5-1.8,1.9-1.8c0.7,0,1.4,0,2.1,0H531c0.9,0,1.8-0.1,2.8-0.1c1,0,1.5-0.5,1.5-1.5 c0-0.4,0.1-0.8,0.1-1.3c0-18.4,0-36.7,0-55.1c0-3.5-0.1-3.5-3.5-3.5h-232c-3.6,0-3.6,0-3.6,3.6v140.2h0c0,36.7,0,73.4,0,110.1 c0,10.2,0,20.4,0,30.6C296.1,291.8,296.6,292.3,299.8,292.3"></path></svg>